<?xml version="1.0" encoding="UTF-8"?>
<svg id="Layer_1" xmlns="http://www.w3.org/2000/svg" version="1.1" viewBox="0 0 1080 450">
  <!-- Generator: Adobe Illustrator 29.0.0, SVG Export Plug-In . SVG Version: 2.1.0 Build 186)  -->
  <defs>
    <style>
      .st0 {
        fill: #304fa2;
      }

      .st1 {
        fill: #ef164d;
      }
    </style>
  </defs>
  <g>
    <path class="st0" d="M356.6,312.7c-12.2,0-23.3-1.9-33.6-5.7-10.2-3.8-19.1-9.2-26.6-16.2s-13.3-15.2-17.5-24.7-6.3-19.8-6.3-30.9,2.1-21.7,6.3-31c4.2-9.4,10-17.6,17.5-24.6s16.4-12.4,26.6-16.2,21.4-5.7,33.4-5.7,23.3,1.9,33.5,5.7,19,9.2,26.5,16.2,13.3,15.2,17.5,24.6c4.2,9.4,6.3,19.7,6.3,31s-2.1,21.5-6.3,30.9c-4.2,9.5-10,17.7-17.5,24.7s-16.3,12.4-26.5,16.2-21.3,5.7-33.3,5.7ZM356.4,272.2c4.7,0,9-.8,13-2.5s7.6-4.1,10.6-7.3c3-3.2,5.4-7.1,7.1-11.7,1.7-4.6,2.5-9.8,2.5-15.6s-.8-11-2.5-15.6-4.1-8.5-7.1-11.7-6.6-5.6-10.6-7.3-8.4-2.5-13-2.5-9,.8-13,2.5-7.6,4.1-10.6,7.3-5.4,7.1-7.1,11.7c-1.7,4.6-2.5,9.8-2.5,15.6s.8,11,2.5,15.6,4.1,8.5,7.1,11.7,6.6,5.6,10.6,7.3c4,1.7,8.4,2.5,13,2.5Z"/>
    <path class="st0" d="M488.5,309.3v-109.6h-43.4v-38.8h136.9v38.8h-43.4v109.6h-50.1Z"/>
    <path class="st0" d="M629.2,309.3v-109.6h-43.4v-38.8h136.9v38.8h-43.4v109.6h-50.1Z"/>
    <path class="st0" d="M735.6,309.3v-148.4h69.3c22.7,0,40.1,5,51.9,15,11.9,10,17.8,23.7,17.8,40.9s-2.8,21.3-8.3,29.6-13.3,14.6-23.4,19c-10.1,4.4-22.1,6.6-35.9,6.6h-43.7l22.3-20.6v57.9h-50,0ZM785.6,256.9l-22.3-22.7h40.5c6.9,0,12-1.6,15.4-4.7,3.3-3.1,5-7.3,5-12.7s-1.7-9.6-5-12.7c-3.3-3.1-8.4-4.7-15.4-4.7h-40.5l22.3-22.7v80.1h0ZM824.4,309.3l-36.5-54h53l36.9,54h-53.4Z"/>
    <path class="st0" d="M929.5,309.3v-65.1l11.4,29.9-67.4-113.2h52.8l45.6,77.4h-30.7l46-77.4h48.3l-67,113.2,11-29.9v65.1h-50Z"/>
  </g>
  <g>
    <path class="st1" d="M168.1,198.5l-67.7,78.8v30.6h-55.9v-13.4c2.2-1.6,4.2-3.3,6.2-5.2,7.5-7,13.3-15.2,17.5-24.7,4.2-9.5,6.3-19.8,6.3-30.9s-2.1-21.7-6.3-31c-4.2-9.4-10-17.6-17.5-24.6-2-1.8-4-3.6-6.2-5.2v-12h58v37.5h65.6Z"/>
    <path class="st1" d="M264.6,202.7c-4.2,9.4-6.3,19.7-6.3,31s2.1,21.5,6.3,30.9c4.2,9.5,10,17.7,17.5,24.7,2,1.8,4,3.6,6.2,5.2v13.4h-51.6v-38.7h-71.1l67.7-78.8v-29.4h55v12c-2.2,1.6-4.2,3.3-6.2,5.2-7.5,7-13.3,15.2-17.5,24.6h0Z"/>
  </g>
</svg>